<?xml version="1.0" encoding="utf-8"?>
<svg width="3750" height="3750" viewBox="0 0 3750 3750" xmlns="http://www.w3.org/2000/svg">
    <path d="M1756.38 1875.11C1759.65 1882.32 1750.79 1916.12 1710.19 1931.98C1691.77 1939.35 1677.61 1940.74 1657.32 1945.02C1632.13 1948.8 1607.68 1945.39 1581.75 1939.35C1562.28 1935.56 1542.62 1929.91 1529.2 1932.82C1467.03 1938.95 1352.63 1949.97 1269.74 1956.38C1226.26 1959.74 1184.58 1962.48 1144.11 1964.24C1035.21 1969.1 948.259 1967.85 878.788 1957.98C812.295 1948.55 773.022 1932.32 773 1915.17C772.963 1897.85 812.005 1882.35 876.753 1866.66C936.764 1852.11 1037.47 1833.31 1138.56 1820.86C1178.46 1815.91 1220.94 1811.43 1264.45 1808.07C1362.67 1800.49 1450.34 1799.91 1529 1806.9C1558.36 1809.75 1582.07 1821.34 1599.31 1830.34C1624.27 1842.15 1639.63 1850.79 1657.17 1854.57C1678.29 1858.21 1693.5 1863.77 1706.01 1866.23C1733.47 1872.15 1751.91 1865.26 1756.38 1875.11Z"/>
    <path d="M1563.3 2016.86C1568.56 2027.12 1543.8 2050.44 1496.5 2076.62C1447.1 2103.98 1382.79 2129.55 1303.56 2154.55C1233.36 2176.72 1150.86 2198.54 1106.77 2208.85C1056.1 2220.7 1022.28 2225.74 1016.75 2215.41C1011.32 2205.27 1035.67 2181.49 1082.71 2154.76C1131.73 2126.9 1196.06 2100.73 1275.42 2075.65C1346.87 2053.07 1427.66 2032.35 1473.1 2022.25C1524.04 2010.9 1557.98 2006.47 1563.3 2016.86Z"/>
    <path d="M1255.78 1711.2C1251.27 1720.93 1224.62 1728.31 1185.99 1728.78C1145.65 1729.27 1099.85 1722.44 1047.77 1709.2C1001.62 1697.47 950.202 1680.55 923.628 1670.51C893.09 1658.96 874.632 1649.12 879.071 1639.22C883.437 1629.51 910.21 1621.61 949.081 1620.64C989.598 1619.63 1035.81 1626.02 1088 1639.25C1134.99 1651.17 1184.9 1668.22 1211.93 1678.97C1242.25 1691 1260.36 1701.34 1255.78 1711.2Z"/>
    <path d="M912.148 2671.21C911.367 2648.38 982.513 2558.32 1089.86 2464.09C1142.43 2417.86 1199.07 2373.78 1262.07 2328.65C1267.74 2324.59 1273.38 2320.58 1278.95 2316.64C1338.84 2274.27 1411.26 2226.6 1455.16 2197.81C1541.47 2140.87 1599.93 2101.78 1600.84 2117.64C1602.07 2139.11 1542.07 2217.61 1448.76 2300.9C1394.34 2349.62 1335.86 2395.1 1268.1 2444.16C1262.5 2448.21 1256.88 2452.26 1251.23 2456.32C1195.01 2496.6 1127.11 2542.99 1083.29 2572.84C982.62 2641.62 912.82 2690.54 912.148 2671.21Z"/>
    <path d="M1471.21 2914.27C1456.91 2911.41 1476.35 2859.33 1491.07 2778.25C1501.11 2723.3 1534.98 2527.64 1563.15 2417.73C1564.05 2414.24 1564.93 2410.77 1565.86 2407.29C1590.9 2312.96 1637.36 2221.15 1675.05 2151.63C1706.5 2093.19 1754.71 2011.66 1771.74 1983.66C1796.15 1943.62 1812.65 1920.01 1823.33 1920.14C1833.72 1920.27 1836.92 1944.38 1828.58 1987.36C1819.46 2034.42 1800.73 2087.1 1771.14 2162.14C1744.64 2229.95 1704.41 2324 1683.71 2405.42C1683.73 2405.57 1681.13 2415.44 1681.1 2415.57C1641.37 2570.73 1617.45 2672.33 1571.45 2779.25C1533.33 2868.73 1484.79 2917 1471.21 2914.27Z"/>
    <path d="M1422.51 1106.93C1415.46 1115.58 1397.65 1114.26 1375.36 1098.77C1352.81 1083.07 1330.03 1055.63 1314.03 1019.98C1313.27 1018.28 1312.53 1016.59 1311.82 1014.9C1297.47 981.897 1291.41 950.127 1290.14 928.655C1288.82 906.539 1292.1 890.228 1301.79 885.584C1311.69 880.835 1326.51 889.117 1342.14 907.722C1358.39 927.086 1371.88 952.726 1385.55 981.965C1386.24 983.382 1386.92 984.811 1387.61 986.247C1400.2 1012.8 1412.73 1044.32 1418.71 1061.63C1425.58 1081.46 1429.57 1098.27 1422.51 1106.93Z"/>
    <path d="M1306.95 2700.59C1295.92 2698.91 1288.01 2682.89 1290.03 2655.83C1292.1 2628.43 1304.16 2594.87 1326.75 2562.98C1327.82 2561.46 1328.9 2559.97 1329.99 2558.49C1351.14 2529.37 1375.43 2508.01 1393.28 2496.01C1411.65 2483.64 1427.37 2478.18 1436.3 2484.17C1445.41 2490.29 1445.81 2507.26 1437.72 2530.17C1429.29 2554 1414.06 2578.65 1395.82 2605.27C1394.95 2606.59 1394.07 2607.9 1393.18 2609.22C1376.7 2633.55 1355.92 2660.36 1344.04 2674.31C1330.44 2690.29 1318 2702.27 1306.95 2700.59Z"/>
    <path d="M1847.64 2585.59C1837.39 2591.83 1822.2 2579.35 1809.59 2546.89C1796.84 2514.01 1789.32 2466.69 1791.61 2413.49C1791.71 2410.95 1791.84 2408.44 1791.98 2405.95C1794.51 2356.98 1803.83 2314.57 1812.62 2287.62C1821.67 2259.86 1832.12 2241.99 1842.87 2242.23C1853.85 2242.48 1863.17 2261.61 1868.43 2293.81C1873.89 2327.31 1874.01 2366.79 1872.62 2410.75C1872.58 2412.9 1872.52 2415.06 1872.46 2417.22C1871.36 2457.26 1867.91 2503.31 1865.21 2528.06C1862.13 2556.41 1857.91 2579.32 1847.64 2585.59Z"/>
    <path d="M2069.95 2843.82C2055.37 2842.05 2046.25 2790.5 2031.79 2710.43C2017.22 2629.96 1994.69 2519.24 1971.75 2394.66C1971.75 2394.66 1970.36 2387.11 1970.38 2387.16C1946.21 2257.34 1931.76 2158.03 1931.41 2068.13C1931.08 1985.31 1943.96 1936 1957.95 1936.85C1972.29 1937.72 1985.11 1987.88 2003.68 2066.46C2015.95 2118.44 2054.37 2281.26 2072.54 2378.4C2073.02 2380.91 2073.49 2383.44 2073.97 2385.95C2098.62 2517.14 2109.19 2622.75 2104.88 2712.23C2100.86 2796.39 2083.93 2845.53 2069.95 2843.82Z"/>
    <path d="M2591.73 2651.12C2586.74 2680.74 2519.53 2677.21 2431.08 2592.87C2386.97 2551 2343.12 2496.41 2297.06 2429.3C2296.09 2427.91 2295.14 2426.53 2294.2 2425.13C2250.9 2361.87 2206.07 2287.88 2175.27 2236.58C2112.78 2132.97 2069 2060.01 2075.67 2036.07C2083.65 2007.39 2145.09 2033.72 2224.04 2123.65C2266.22 2171.52 2307.17 2228.05 2353.55 2295.42C2353.55 2295.42 2356.35 2299.47 2356.37 2299.49C2410.14 2377.5 2430.25 2409.07 2474.95 2471.29C2543.23 2565.99 2596.26 2624.26 2591.73 2651.12Z"/>
    <path d="M2758.83 2367.82C2756.58 2379.56 2730.91 2386.31 2690.28 2381.36C2648.48 2376.27 2597.8 2359.77 2543.29 2330.88C2541.46 2329.92 2539.64 2328.94 2537.82 2327.94C2487.3 2300.77 2443.12 2268.18 2415.81 2244.21C2387.46 2219.3 2371.88 2199.17 2376.95 2188.54C2382.08 2177.81 2407.26 2178.69 2443.89 2190.18C2482.25 2202.24 2525.46 2223.02 2576.3 2249.57C2578.04 2250.48 2579.78 2251.39 2581.53 2252.3C2623.76 2274.33 2684.42 2308.03 2708.33 2322.16C2740.24 2340.97 2761.14 2355.79 2758.83 2367.82Z"/>
    <path d="M3011.28 2089.5C3015.54 2108.95 2969.81 2137.26 2885.75 2144.05C2793.95 2151.47 2690.03 2133.01 2550.73 2096.48C2544.84 2094.94 2538.96 2093.39 2533.14 2091.82C2442.64 2068.15 2359.52 2043.34 2290.06 2025.43C2209.93 2005.07 2193.39 2001.95 2140.07 1990.96C2104.07 1983.55 2082.3 1978.05 2079.01 1965.2C2075.91 1953.05 2091.91 1934.89 2126.02 1921.38C2161.74 1907.25 2210.05 1900.81 2275.33 1904.71C2348.69 1908.88 2427.21 1924.46 2520.65 1947.98C2526.52 1949.44 2532.41 1950.93 2538.32 1952.44C2669.55 1986.01 2786.6 2022.03 2870.43 2041.44C2953.84 2060.79 3006.77 2068.97 3011.28 2089.5Z"/>
    <path d="M3170.89 1654.66C3173.26 1665.14 3137.46 1691.89 3074.86 1718.36C3010.49 1745.57 2925.45 1769.24 2823.9 1780.41C2743.51 1789.26 2669.05 1788.52 2609.41 1783.58C2587.8 1780.79 2558.14 1789.69 2539.01 1793.96C2516.73 1799.42 2503.12 1803.07 2488.11 1801.72C2475.35 1800.58 2469.01 1795.75 2469 1791.42C2468.99 1786.86 2475.09 1783.05 2484.79 1776.67C2485.57 1776.15 2517.49 1754.34 2528.74 1748.12C2546.83 1737.31 2575.79 1720.8 2609.29 1717.66C2667.07 1712.43 2741.77 1706.93 2818.91 1698.52C2923.92 1687.05 2994.08 1674.73 3065.38 1661.85C3128.37 1650.47 3168.37 1643.47 3170.89 1654.66Z"/>
    <path d="M2058.34 1885.92C2051.06 1851.96 2116.82 1732.26 2232.81 1639.5C2284.49 1597.98 2341.1 1564.22 2403.4 1536.63C2412.02 1532.82 2420.55 1529.22 2428.98 1525.77C2494 1499.28 2561.31 1481.05 2609.04 1469.7C2694.99 1448.5 2753.62 1439.69 2756.64 1465.45C2760.86 1501.31 2703.97 1574.33 2611.45 1633.99C2556.77 1669.55 2499.44 1697.04 2431.04 1727.75C2422.8 1731.47 2414.56 1735.13 2406.21 1738.82C2339.87 1768.28 2299 1785.86 2244.18 1812.81C2139.38 1864.71 2064.77 1915.96 2058.34 1885.92Z"/>
    <path d="M1995.27 1660.25C1978.83 1634.08 2002.17 1579.37 2046.92 1509.27C2089.6 1442.38 2161.26 1347.35 2238.95 1256.99C2320.43 1162.35 2398.34 1084.59 2466.06 1034.44C2532.58 985.187 2583.74 966.937 2603.44 989.703C2623.07 1012.3 2607.91 1071.46 2568.53 1149.2C2529.69 1225.91 2464.21 1326.07 2381.26 1422.01C2296.28 1520.25 2210.8 1593.34 2137.39 1635.97C2065.16 1677.92 2011.53 1686.12 1995.27 1660.25Z"/>
    <path d="M1961.14 1485.35C1953.98 1485.67 1945.81 1466.43 1943.01 1433.63C1940.1 1399.7 1943.35 1357.1 1954.51 1308.22C1954.96 1306.26 1955.4 1304.32 1955.87 1302.39C1966.3 1258.13 1981.71 1215.29 1992.64 1189.27C2004.3 1161.56 2014.17 1144.7 2021.17 1146.08C2028.23 1147.48 2031.1 1167.1 2028.53 1198C2025.76 1231.14 2018.01 1267.83 2007.55 1314.31C2007.53 1314.42 2006.32 1319.82 2006.3 1319.93C1996.08 1365.57 1987.07 1406.18 1980.39 1435.97C1973.76 1465.57 1968.58 1485.02 1961.14 1485.35Z"/>
    <path d="M1853.39 1650.82C1832.8 1652.43 1809.72 1609.25 1786.5 1538.97C1763.96 1470.78 1738.69 1368.55 1721.4 1260.85C1720.23 1253.44 1719.09 1246.09 1718 1238.78C1701.84 1131.28 1695.92 1041.16 1702.27 968.003C1708.34 897.74 1725.28 854.791 1745.09 853.941C1765.07 853.117 1784.38 894.131 1804.79 959.984C1823.65 1020.88 1849.23 1122.99 1866.11 1222.59C1867.33 1229.85 1868.56 1237.18 1869.73 1244.54C1887.65 1355.8 1895.18 1453.24 1891.59 1528.89C1888.04 1602.87 1873.9 1649.21 1853.39 1650.82Z"/>
    <path d="M1812.88 1800.71C1788.16 1813.02 1627.62 1676.66 1485.49 1479.99C1343.45 1283.44 1279.55 1111.33 1306.97 1103.97C1335.19 1096.43 1444.19 1254.51 1581.5 1444.56C1718.6 1634.34 1836.89 1788.75 1812.88 1800.71Z"/>
    <path d="M1647.65 1760.26C1643.13 1785.65 1557.95 1781.89 1440.21 1719C1378.29 1686.12 1314.93 1642.94 1245.99 1589.4C1244.64 1588.34 1243.25 1587.24 1241.89 1586.2C1172.4 1532.57 1035.41 1411.23 1004.69 1384.64C946.314 1334.22 907.253 1301.6 911.969 1283.89C916.597 1266.6 965.579 1267.83 1039.7 1300.61C1121.25 1336.66 1199.65 1393.47 1301.4 1473.03C1301.4 1473.03 1305.47 1476.15 1305.49 1476.17C1372.13 1527.81 1432.22 1576.76 1483.88 1617.09C1580.51 1692 1651.32 1739.7 1647.65 1760.26Z"/>
</svg>
