<svg width="200" height="250" viewBox="0 0 200 250" fill="none" xmlns="http://www.w3.org/2000/svg">
    <g>
        <path d="M199 10C199 5 195 1 190 1H10C5 1 1 5 1 10V240C1 245 5 249 10 249H190C195 249 199 245 199 240V10Z" fill="white"/>
        <path d="M32 33.7273C25.3333 30.4545 22 13 37.5556 13C53.1111 13 49.7778 30.4545 43.1111 33.7273C47.5556 30.4545 62 26.0909 62 41.3636C62 56.6364 42 55.5455 40.8889 43.5455H38.6667C38.6667 43.5455 39.7778 55.5455 43.1111 61H32C35.3333 55.5455 36.4444 43.5455 36.4444 43.5455H34.2222C33.1111 55.5455 12 56.6364 12 41.3636C12 28.2727 27.5556 30.4545 32 33.7273Z" fill="black"/>
        <path d="M156 218.841C149.333 222.182 146 240 161.556 240C177.111 240 173.778 222.182 167.111 218.841C171.556 222.182 186 226.636 186 211.045C186 195.455 166 196.568 164.889 208.818H162.667C162.667 208.818 163.778 196.568 167.111 191H156C159.333 196.568 160.444 208.818 160.444 208.818H158.222C157.111 196.568 136 195.455 136 211.045C136 224.409 151.556 222.182 156 218.841Z" fill="black"/>
    </g>
</svg>
