<svg width="200" height="250" viewBox="0 0 200 250" fill="none" xmlns="http://www.w3.org/2000/svg">
    <g>
        <path d="M199 10C199 5 195 1 190 1H10C5 1 1 5 1 10V240C1 245 5 249 10 249H190C195 249 199 245 199 240V10Z" fill="white"/>
        <path d="M32.9868 14C24.7763 26.5217 14 33.8261 14 44.2609C14 53.6522 19.1316 55.7391 22.2105 55.7391C26.3158 55.7391 29.3947 53.6522 29.3947 46.3478C29.3947 44.2609 31.4474 44.2609 31.4474 46.3478C31.4474 56.7826 29.3947 56.7826 27.3421 62H38.6316C36.5789 56.7826 34.5263 56.7826 34.5263 46.3478C34.5263 44.2609 36.5789 44.2609 36.5789 46.3478C36.5789 54.6957 39.6579 55.7391 43.7632 55.7391C46.8421 55.7391 53 53.6522 53 44.2609C53 33.69 41.1974 26.5217 32.9868 14Z" fill="black"/>
        <path d="M164.474 239C156.053 226.478 145 219.174 145 208.739C145 199.348 150.263 197.261 153.421 197.261C157.632 197.261 160.789 199.348 160.789 206.652C160.789 208.739 162.895 208.739 162.895 206.652C162.895 196.217 160.789 196.217 158.684 191H170.263C168.158 196.217 166.053 196.217 166.053 206.652C166.053 208.739 168.158 208.739 168.158 206.652C168.158 198.304 171.316 197.261 175.526 197.261C178.684 197.261 185 199.348 185 208.739C185 219.31 172.895 226.478 164.474 239Z" fill="black"/>
    </g>
</svg>
