<svg width="200" height="250" viewBox="0 0 200 250" fill="none" xmlns="http://www.w3.org/2000/svg">
    <g>
        <path d="M199 10C199 5 195 1 190 1H10C5 1 1 5 1 10V240C1 245 5 249 10 249H190C195 249 199 245 199 240V10Z" fill="white"/>
        <path d="M175.515 201.2C173.115 202.4 171.915 208.8 177.515 208.8C183.115 208.8 181.915 202.4 179.515 201.2C181.115 202.4 186.315 204 186.315 198.4C186.315 192.8 179.115 193.2 178.715 197.6H177.915C177.915 197.6 178.315 193.2 179.515 191.2H175.515C176.715 193.2 177.115 197.6 177.115 197.6H176.315C175.915 193.2 168.315 192.8 168.315 198.4C168.315 203.2 173.915 202.4 175.515 201.2Z" fill="black"/>
        <path d="M19.5154 51.3C17.1154 50.1 15.9154 43.7 21.5154 43.7C27.1154 43.7 25.9154 50.1 23.5154 51.3C25.1154 50.1 30.3154 48.5 30.3154 54.1C30.3154 59.7 23.1154 59.3 22.7154 54.9H21.9154C21.9154 54.9 22.3154 59.3 23.5154 61.3H19.5154C20.7154 59.3 21.1154 54.9 21.1154 54.9H20.3154C19.9154 59.3 12.3154 59.7 12.3154 54.1C12.3154 49.3 17.9154 50.1 19.5154 51.3Z" fill="black"/>
        <path d="M21.8466 12.3206C21.6503 12.687 19.7919 16.8096 15.0149 27.4759C12.0048 34.2029 11.2064 35.7996 10.4735 36.6241C9.92387 37.2523 9.16479 37.7366 8.47115 37.8674C8.17014 37.9329 8.06544 38.0376 8.03926 38.3124L8 38.6658H12.3843H16.7817V38.3386C16.7817 37.9852 16.7032 37.959 15.4861 37.8151C13.9941 37.6449 13.379 37.0691 13.379 35.8389C13.379 35.0667 13.536 34.5825 14.3867 32.6062L15.0018 31.2059L19.5825 31.2321L24.1631 31.2713L25.1447 33.5616C26.7021 37.2261 26.5843 37.7366 24.1238 37.959C23.2601 38.0376 23.1946 38.0768 23.1946 38.3517V38.6658H29.5421H35.8895V38.3386C35.8895 38.0899 35.7979 37.9983 35.5362 37.9329C34.2929 37.658 33.8479 37.3178 33.0495 35.9959C32.7747 35.564 30.2619 29.9887 27.4481 23.6282C24.6473 17.2546 22.2785 12.0326 22.1869 12.0065C22.1084 11.9672 21.9513 12.1112 21.8466 12.3206ZM21.611 25.4212C22.6319 27.7508 23.4564 29.6877 23.4564 29.7139C23.4564 29.7401 21.7157 29.7662 19.5956 29.7662C17.4754 29.7662 15.7347 29.727 15.7347 29.6746C15.7347 29.4129 19.5956 21.0107 19.6741 21.0892C19.7264 21.1416 20.6033 23.1047 21.611 25.4212Z" fill="black"/>
        <path d="M177.043 241.345C177.239 240.979 179.098 236.856 183.875 226.19C186.885 219.463 187.683 217.866 188.416 217.042C188.966 216.413 189.725 215.929 190.418 215.798C190.72 215.733 190.824 215.628 190.85 215.353L190.89 215H186.505H182.108V215.327C182.108 215.681 182.186 215.707 183.404 215.851C184.896 216.021 185.511 216.597 185.511 217.827C185.511 218.599 185.354 219.083 184.503 221.06L183.888 222.46L179.307 222.434L174.727 222.394L173.745 220.104C172.188 216.44 172.305 215.929 174.766 215.707C175.63 215.628 175.695 215.589 175.695 215.314V215H169.348H163V215.327C163 215.576 163.092 215.667 163.353 215.733C164.597 216.008 165.042 216.348 165.84 217.67C166.115 218.102 168.628 223.677 171.442 230.038C174.242 236.411 176.611 241.633 176.703 241.659C176.781 241.699 176.938 241.555 177.043 241.345ZM177.279 228.245C176.258 225.915 175.433 223.978 175.433 223.952C175.433 223.926 177.174 223.9 179.294 223.9C181.414 223.9 183.155 223.939 183.155 223.991C183.155 224.253 179.294 232.655 179.216 232.577C179.163 232.524 178.286 230.561 177.279 228.245Z" fill="black"/>
    </g>
</svg>
