<svg width="200" height="250" viewBox="0 0 200 250" fill="none" xmlns="http://www.w3.org/2000/svg">
    <g>
        <path d="M199 10C199 5 195 1 190 1H10C5 1 1 5 1 10V240C1 245 5 249 10 249H190C195 249 199 245 199 240V10Z" fill="white"/>
        <path d="M177.115 209.2C173.915 204.4 169.715 201.6 169.715 197.6C169.715 194 171.715 193.2 172.915 193.2C174.515 193.2 175.715 194 175.715 196.8C175.715 197.6 176.515 197.6 176.515 196.8C176.515 192.8 175.715 192.8 174.915 190.8H179.315C178.515 192.8 177.715 192.8 177.715 196.8C177.715 197.6 178.515 197.6 178.515 196.8C178.515 193.6 179.715 193.2 181.315 193.2C182.515 193.2 184.915 194 184.915 197.6C184.915 201.652 180.315 204.4 177.115 209.2Z" fill="black" />
        <path d="M21.1153 43.3C17.9153 48.1 13.7153 50.9 13.7153 54.9C13.7153 58.5 15.7153 59.3 16.9153 59.3C18.5153 59.3 19.7153 58.5 19.7153 55.7C19.7153 54.9 20.5153 54.9 20.5153 55.7C20.5153 59.7 19.7153 59.7 18.9153 61.7H23.3153C22.5153 59.7 21.7153 59.7 21.7153 55.7C21.7153 54.9 22.5153 54.9 22.5153 55.7C22.5153 58.9 23.7153 59.3 25.3153 59.3C26.5153 59.3 28.9153 58.5 28.9153 54.9C28.9153 50.8478 24.3153 48.1 21.1153 43.3Z" fill="black" />
        <path d="M21.8466 12.3206C21.6503 12.687 19.7919 16.8096 15.0149 27.4759C12.0048 34.2029 11.2064 35.7996 10.4735 36.6241C9.92387 37.2523 9.16479 37.7366 8.47115 37.8674C8.17014 37.9329 8.06544 38.0376 8.03926 38.3124L8 38.6658H12.3843H16.7817V38.3386C16.7817 37.9852 16.7032 37.959 15.4861 37.8151C13.9941 37.6449 13.379 37.0691 13.379 35.8389C13.379 35.0667 13.536 34.5825 14.3867 32.6062L15.0018 31.2059L19.5825 31.2321L24.1631 31.2713L25.1447 33.5616C26.7021 37.2261 26.5843 37.7366 24.1238 37.959C23.2601 38.0376 23.1946 38.0768 23.1946 38.3517V38.6658H29.5421H35.8895V38.3386C35.8895 38.0899 35.7979 37.9983 35.5362 37.9329C34.2929 37.658 33.8479 37.3178 33.0495 35.9959C32.7747 35.564 30.2619 29.9887 27.4481 23.6282C24.6473 17.2546 22.2785 12.0326 22.1869 12.0065C22.1084 11.9672 21.9513 12.1112 21.8466 12.3206ZM21.611 25.4212C22.6319 27.7508 23.4564 29.6877 23.4564 29.7139C23.4564 29.7401 21.7157 29.7662 19.5956 29.7662C17.4754 29.7662 15.7347 29.727 15.7347 29.6746C15.7347 29.4129 19.5956 21.0107 19.6741 21.0892C19.7264 21.1416 20.6033 23.1047 21.611 25.4212Z" fill="black"/>
        <path d="M176.043 242.345C176.239 241.979 178.098 237.856 182.875 227.19C185.885 220.463 186.683 218.866 187.416 218.042C187.966 217.413 188.725 216.929 189.418 216.798C189.72 216.733 189.824 216.628 189.85 216.353L189.89 216H185.505H181.108V216.327C181.108 216.681 181.186 216.707 182.404 216.851C183.896 217.021 184.511 217.597 184.511 218.827C184.511 219.599 184.354 220.083 183.503 222.06L182.888 223.46L178.307 223.434L173.727 223.394L172.745 221.104C171.188 217.44 171.305 216.929 173.766 216.707C174.63 216.628 174.695 216.589 174.695 216.314V216H168.348H162V216.327C162 216.576 162.092 216.667 162.353 216.733C163.597 217.008 164.042 217.348 164.84 218.67C165.115 219.102 167.628 224.677 170.442 231.038C173.242 237.411 175.611 242.633 175.703 242.659C175.781 242.699 175.938 242.555 176.043 242.345ZM176.279 229.245C175.258 226.915 174.433 224.978 174.433 224.952C174.433 224.926 176.174 224.9 178.294 224.9C180.414 224.9 182.155 224.939 182.155 224.991C182.155 225.253 178.294 233.655 178.216 233.577C178.163 233.524 177.286 231.561 176.279 229.245Z" fill="black"/>
    </g>
</svg>
