<svg width="200" height="250" viewBox="0 0 200 250" fill="none" xmlns="http://www.w3.org/2000/svg">
    <g>
        <path d="M199 10C199 5 195 1 190 1H10C5 1 1 5 1 10V240C1 245 5 249 10 249H190C195 249 199 245 199 240V10Z" fill="white"/>
        <path d="M164 229.4C164 232.6 158.75 239 153.5 239C148.25 239 143 234.733 143 227.267C143 215.533 159.8 196.333 164 191C168.2 196.333 185 215.533 185 227.267C185 234.733 179.75 239 174.5 239C169.224 239 164 232.6 164 229.4Z" fill="#FF0000"/>
        <path d="M34.5 22.6C34.5 19.4 29.125 13 23.75 13C18.375 13 13 17.2667 13 24.7333C13 36.4667 30.2 55.6667 34.5 61C38.8 55.6667 56 36.4667 56 24.7333C56 17.2667 50.625 13 45.25 13C39.8482 13 34.5 19.4 34.5 22.6Z" fill="#FF0000"/>
    </g>
</svg>
