<svg width="130" height="130" viewBox="0 0 130 130" fill="none" xmlns="http://www.w3.org/2000/svg">
    <path d="M117.266 54.0316C123.507 38.9019 109.867 18.9386 86.7914 9.47018C63.7162 0.00170898 39.9788 4.50422 33.821 19.6836C27.6632 34.8629 41.2368 54.7268 64.3121 64.2615C87.3873 73.7962 111.059 69.1778 117.266 54.0316Z" fill="#99D9E9" fill-opacity="0.37"/>
    <circle id="background" cx="64.755" cy="64.7567" r="64.755" fill="#ADD8E6"/>
    <path d="M109.733 32.8434C109.733 32.8434 81.3445 22.299 45.8874 42.7753C12.1022 62.242 25.3283 97.1197 18.6242 83.7778C11.9201 70.4358 2.53445 29.4996 44.7784 11.1421C83.2978 -5.65949 109.733 32.8434 109.733 32.8434Z" fill="#D7EFF8" fill-opacity="0.62"/>
    <path opacity="0.32" d="M117.266 54.0316C123.507 38.9019 109.867 18.9386 86.7914 9.47018C63.7162 0.00170898 39.9788 4.50422 33.821 19.6836C27.6632 34.8629 41.2368 54.7268 64.3121 64.2615C87.3873 73.7962 111.059 69.1778 117.266 54.0316Z" fill="#89D0E2"/>
    <path d="M22.6794 96.0107C19.6998 88.4955 21.8352 80.6327 27.4799 78.3814C33.1245 76.1302 40.0935 80.4175 43.0565 87.9161C46.0195 95.4147 43.8676 103.327 38.2395 105.562C32.6114 107.797 25.6425 103.509 22.6794 96.0107Z" fill="#EDF8FE" fill-opacity="0.5"/>
    <path d="M18.3105 59.1796C18.6581 53.8991 22.1674 49.827 26.1567 50.1084C30.1461 50.3898 33.076 54.9089 32.6952 60.1894C32.3145 65.4699 28.8052 69.5751 24.8324 69.2937C20.8596 69.0123 17.9298 64.5595 18.3105 59.1796Z" fill="#EDF8FE" fill-opacity="0.5"/>
</svg>
